# Blender 3.3.1
# www.blender.org
mtllib tree_3.mtl
o LeafTree_3
v 0.032196 0.820181 0.053523
v -0.000000 0.000000 -0.114495
v 0.023187 0.815158 0.106354
v -0.108891 0.000000 -0.035381
v 0.064205 0.821936 0.171833
v -0.067298 0.000000 0.092628
v 0.098565 0.831147 0.159469
v 0.067298 0.000000 0.092628
v 0.078782 0.830063 0.086349
v 0.108891 0.000000 -0.035381
v 0.118161 0.642567 0.042151
v 0.130625 0.453947 -0.026498
v 0.027526 0.243347 -0.079296
v -0.065938 0.250648 -0.013525
v 0.050684 0.466118 0.022293
v 0.059142 0.630395 0.085725
v -0.032279 0.250547 0.095936
v 0.073026 0.472304 0.113846
v 0.081868 0.633104 0.156481
v 0.081988 0.243185 0.097816
v 0.166775 0.463957 0.121637
v 0.154932 0.646950 0.156636
v 0.118950 0.238735 -0.010483
v 0.202373 0.452612 0.034900
v 0.177363 0.652798 0.085976
v 0.084265 0.774843 0.000414
v 0.445100 0.944619 0.285598
v -0.055438 0.942988 0.463211
v -0.317860 0.963199 -0.000933
v -0.040667 0.960242 -0.418835
v 0.411748 0.965851 -0.252343
v 0.216001 1.306228 0.432985
v -0.239884 1.296886 0.255044
v -0.310137 1.332221 -0.304650
v 0.210708 1.302166 -0.421475
v 0.451975 1.281429 0.002716
v 0.085002 1.511019 -0.000698
v 0.012595 0.812292 0.240988
v 0.273549 0.821441 0.145804
v 0.199026 0.941608 0.376500
v 0.498597 0.918634 -0.000501
v 0.258295 0.846889 -0.133497
v -0.147074 0.818495 0.000130
v -0.224534 0.934330 0.241742
v 0.014330 0.826951 -0.231496
v -0.231765 0.928334 -0.247721
v 0.203120 0.934108 -0.390631
v 0.531359 1.129480 0.156266
v 0.524396 1.132542 -0.153960
v 0.086737 1.130182 0.451226
v 0.363841 1.131065 0.414586
v -0.273889 1.130461 0.122169
v -0.178324 1.130341 0.388830
v -0.205567 1.128794 -0.433916
v -0.358204 1.131017 -0.154814
v 0.369040 1.130823 -0.422841
v 0.084193 1.132191 -0.434358
v 0.390527 1.324251 0.240609
v -0.037998 1.332350 0.406406
v -0.268600 1.314959 -0.003314
v -0.042901 1.345564 -0.432968
v 0.399595 1.328233 -0.243128
v 0.169145 1.490044 0.274047
v 0.323650 1.448274 0.000065
v -0.111321 1.459788 0.153920
v -0.123332 1.474301 -0.160046
v 0.175667 1.507894 -0.288257
v -0.249495 0.579121 0.152221
v -0.055098 0.708296 0.293209
v -0.331981 0.692863 0.409889
v -0.484648 0.710321 0.151336
v -0.315857 0.717184 -0.057416
v -0.038390 0.701858 -0.002277
v -0.173932 0.919678 0.382772
v -0.446924 0.919482 0.294518
v -0.420787 0.903669 0.029590
v -0.169309 0.923632 -0.092520
v 0.012389 0.926188 0.151078
v -0.251924 1.071359 0.151724
v -0.291636 0.618376 0.283399
v -0.129401 0.608738 0.235229
v -0.181022 0.696565 0.358290
v 0.014449 0.672927 0.151556
v -0.124454 0.594396 0.059894
v -0.390079 0.614772 0.150296
v -0.426731 0.696974 0.280639
v -0.298193 0.594663 0.003266
v -0.448176 0.682194 0.004679
v -0.168484 0.671323 -0.100709
v 0.040478 0.812990 0.246017
v -0.023804 0.812101 0.079838
v -0.248780 0.813296 0.434383
v -0.068658 0.812614 0.400631
v -0.525621 0.812867 0.242321
v -0.419460 0.813360 0.384473
v -0.393830 0.811869 -0.048306
v -0.488458 0.813071 0.074546
v -0.102291 0.812435 -0.053385
v -0.248084 0.813826 -0.121058
v -0.055692 0.941223 0.292088
v -0.320407 0.935647 0.368824
v -0.497699 0.947249 0.150556
v -0.313211 0.927977 -0.053194
v -0.052407 0.943807 0.008306
v -0.205114 1.013914 0.286694
v -0.087274 1.040395 0.152252
v -0.366457 1.018021 0.237111
v -0.353421 0.994366 0.075367
v -0.203816 1.024509 0.007730
vn -0.5566 0.1803 -0.8110
vn -0.9479 0.1286 0.2916
vn -0.0178 -0.0203 0.9996
vn -0.0000 -1.0000 -0.0000
vn 0.9429 -0.0736 0.3248
vn 0.6022 0.0577 -0.7962
vn -0.2415 0.9691 0.0510
vn 0.5070 0.2972 -0.8091
vn 0.5421 0.2707 -0.7955
vn 0.6437 -0.1258 -0.7549
vn 0.8489 0.4726 -0.2367
vn 0.9530 0.0038 0.3028
vn 0.8259 -0.4053 0.3920
vn 0.3486 -0.0435 0.9363
vn 0.0331 -0.1857 0.9821
vn -0.0862 -0.0394 0.9955
vn -0.8166 -0.2186 0.5342
vn -0.9514 -0.0290 0.3067
vn -0.8769 0.4440 0.1840
vn -0.8883 -0.4177 -0.1912
vn -0.6050 0.3137 -0.7318
vn -0.4409 0.3743 -0.8158
vn -0.5793 0.1688 -0.7974
vn -0.9424 0.1348 0.3062
vn -0.0000 -0.0132 0.9999
vn 0.9491 -0.0639 0.3084
vn 0.5870 0.0505 -0.8080
vn -0.2415 0.9691 0.0509
vn 0.5340 0.2986 -0.7910
vn 0.6227 0.3036 -0.7211
vn 0.5981 -0.0638 -0.7989
vn 0.9100 0.2737 0.3115
vn 0.9258 0.0194 0.3774
vn 0.8746 -0.3697 0.3137
vn 0.0008 -0.0151 0.9999
vn -0.1023 -0.2497 0.9629
vn -0.0227 -0.0986 0.9949
vn -0.9447 -0.1134 0.3078
vn -0.9699 -0.0426 0.2396
vn -0.8780 0.3951 0.2703
vn -0.5905 -0.0248 -0.8067
vn -0.4702 0.2742 -0.8389
vn -0.4963 0.4318 -0.7532
vn 0.1008 -0.9781 0.1823
vn 0.4809 -0.8605 0.1681
vn -0.1847 -0.9780 0.0972
vn -0.1828 -0.9696 -0.1627
vn 0.1850 -0.9454 -0.2682
vn 0.9341 -0.2949 0.2014
vn 0.3164 -0.1807 0.9313
vn -0.9339 -0.0173 0.3571
vn -0.5033 -0.5519 -0.6650
vn 0.5191 -0.5456 -0.6579
vn 0.8389 -0.0108 0.5441
vn -0.2229 0.2299 0.9473
vn -0.9560 0.0371 0.2911
vn -0.0005 -0.0896 -0.9960
vn 0.8321 -0.2796 -0.4790
vn 0.5500 0.6220 0.5573
vn -0.5000 0.7060 0.5015
vn -0.6634 0.7362 0.1336
vn 0.1321 0.5545 -0.8216
vn 0.7920 0.6083 -0.0529
vn 0.2535 0.9649 0.0694
vn 0.6373 0.7512 -0.1718
vn 0.5482 0.5184 -0.6563
vn -0.1339 0.9896 -0.0530
vn -0.2977 0.8266 -0.4776
vn -0.2698 0.8378 -0.4747
vn -0.2127 0.9757 0.0532
vn -0.7078 0.7039 0.0596
vn -0.7382 0.6623 0.1284
vn -0.1585 0.9796 0.1233
vn -0.3010 0.8133 0.4979
vn -0.0122 0.6522 0.7579
vn 0.2543 0.9671 -0.0040
vn 0.6056 0.7632 0.2252
vn 0.7884 0.6079 0.0942
vn 0.8573 0.5075 -0.0860
vn 0.8231 0.3073 -0.4775
vn 0.5504 0.5139 -0.6580
vn 0.0516 0.0372 -0.9980
vn -0.0016 0.0056 -1.0000
vn -0.4229 0.3211 -0.8474
vn -0.9316 0.3324 0.1474
vn -0.9330 0.2202 0.2845
vn -0.9872 0.1081 0.1173
vn -0.6000 0.3544 0.7172
vn -0.2285 0.0742 0.9707
vn -0.0859 0.1649 0.9826
vn 0.6320 0.4686 0.6173
vn 0.7872 0.3491 0.5084
vn 0.8280 0.5488 0.1151
vn 0.0406 0.0455 -0.9981
vn 0.0387 -0.1932 -0.9804
vn 0.0966 -0.1589 -0.9826
vn -0.8685 -0.1454 -0.4738
vn -0.8345 -0.3125 -0.4539
vn -0.8691 -0.4311 -0.2423
vn -0.9386 -0.0768 0.3363
vn -0.9409 -0.0312 0.3372
vn -0.7615 -0.2645 0.5917
vn 0.1311 0.0065 0.9914
vn 0.1260 -0.2997 0.9457
vn 0.3154 -0.4431 0.8392
vn 0.8926 0.4506 -0.0156
vn 0.9904 -0.1364 -0.0236
vn 0.8572 -0.3645 -0.3639
vn 0.3740 -0.8509 -0.3689
vn 0.2169 -0.9094 -0.3550
vn -0.0211 -0.8175 -0.5755
vn -0.3038 -0.8162 -0.4915
vn -0.3504 -0.8948 -0.2768
vn -0.6416 -0.7581 -0.1167
vn -0.6391 -0.7531 0.1562
vn -0.4400 -0.8566 0.2696
vn -0.4264 -0.8307 0.3580
vn 0.4239 -0.8525 -0.3060
vn 0.3368 -0.9359 -0.1037
vn 0.3117 -0.9446 -0.1031
vn 0.1792 -0.8231 0.5389
vn 0.2134 -0.8365 0.5047
vn 0.1958 -0.8424 0.5020
vn 0.0311 -0.9548 0.2957
vn 0.5691 -0.6875 0.4511
vn -0.2432 -0.9479 0.2055
vn -0.2455 -0.9692 -0.0209
vn 0.0361 -0.9927 -0.1154
vn 0.7445 -0.4628 0.4811
vn 0.3065 -0.3885 0.8690
vn -0.7734 -0.5647 0.2881
vn -0.3675 -0.2156 -0.9047
vn 0.6059 -0.0175 -0.7954
vn 0.7351 -0.4377 0.5178
vn -0.2807 -0.0013 0.9598
vn -0.9577 -0.1942 -0.2124
vn -0.4273 -0.2688 -0.8632
vn 0.8334 0.2550 -0.4903
vn 0.3310 0.7252 0.6038
vn -0.4300 0.6902 0.5820
vn -0.5058 0.6575 -0.5585
vn -0.1789 0.6621 -0.7278
vn 0.7279 0.6378 -0.2517
vn 0.1797 0.9515 -0.2495
vn 0.4258 0.7957 -0.4308
vn 0.3827 0.7138 -0.5865
vn -0.3492 0.8505 -0.3934
vn -0.3872 0.7643 -0.5158
vn -0.5447 0.6635 -0.5130
vn -0.5146 0.8415 -0.1645
vn -0.3823 0.9094 -0.1638
vn -0.6136 0.7065 0.3527
vn -0.1062 0.9011 0.4204
vn -0.1519 0.8133 0.5617
vn 0.0115 0.7157 0.6983
vn 0.1732 0.9264 0.3343
vn 0.3695 0.7953 0.4806
vn 0.7242 0.6291 0.2826
vn 0.9089 -0.0286 -0.4160
vn 0.8581 -0.0883 -0.5058
vn 0.6372 0.1159 -0.7620
vn -0.2308 0.3965 -0.8885
vn -0.4335 0.2648 -0.8614
vn -0.6143 0.3978 -0.6814
vn -0.7618 0.2788 -0.5848
vn -0.9749 0.0551 -0.2159
vn -0.8243 0.4259 0.3729
vn -0.4876 0.4877 0.7242
vn -0.2648 0.3304 0.9059
vn -0.0350 0.4560 0.8893
vn 0.4417 0.5522 0.7071
vn 0.7568 0.3753 0.5351
vn 0.8072 0.4839 0.3381
vn 0.4196 -0.0657 -0.9053
vn 0.4195 0.1056 -0.9016
vn -0.3583 -0.3251 -0.8752
vn -0.7602 0.2759 -0.5882
vn -0.7892 0.0820 -0.6087
vn -0.9611 -0.1874 -0.2031
vn -0.7681 0.2866 0.5726
vn -0.7202 -0.4362 0.5394
vn -0.7369 -0.4239 0.5267
vn 0.1752 0.3272 0.9286
vn 0.1607 -0.4719 0.8669
vn 0.4017 -0.6311 0.6636
vn 0.9304 -0.0707 -0.3595
vn 0.9302 0.0701 -0.3602
vn 0.9465 0.1026 -0.3058
vn 0.5278 -0.7006 -0.4803
vn 0.1486 -0.8754 -0.4600
vn -0.3783 -0.4541 -0.8067
vn -0.2754 -0.4583 -0.8451
vn -0.4958 -0.8465 -0.1941
vn -0.7103 -0.7026 -0.0419
vn -0.6890 -0.6846 0.2380
vn -0.4726 -0.7993 0.3712
vn -0.4803 -0.8142 0.3262
vn 0.6243 -0.7003 -0.3461
vn 0.4470 -0.8904 0.0854
vn 0.1826 -0.9795 0.0853
vn 0.2061 -0.8131 0.5445
vn 0.1356 -0.7787 0.6126
vn 0.3914 -0.6635 0.6377
vt 0.382251 0.505851
vt 0.382251 0.652720
vt 0.382251 0.505851
vt 0.382251 0.652720
vt 0.382251 0.505851
vt 0.382251 0.652720
vt 0.382251 0.505851
vt 0.382251 0.652720
vt 0.382251 0.505851
vt 0.382251 0.652720
vt 0.382251 0.542568
vt 0.382251 0.579286
vt 0.382251 0.616003
vt 0.382251 0.616003
vt 0.382251 0.579286
vt 0.382251 0.542568
vt 0.382251 0.616003
vt 0.382251 0.579286
vt 0.382251 0.542568
vt 0.382251 0.616003
vt 0.382251 0.579286
vt 0.382251 0.542568
vt 0.382251 0.616003
vt 0.382251 0.579286
vt 0.382251 0.542568
vt 0.491670 0.737026
vt 0.491670 0.722769
vt 0.491670 0.722906
vt 0.491670 0.721208
vt 0.491670 0.721457
vt 0.491670 0.720986
vt 0.491670 0.692402
vt 0.491670 0.693186
vt 0.491670 0.690219
vt 0.491670 0.692743
vt 0.491670 0.694484
vt 0.491670 0.675204
vt 0.491670 0.733881
vt 0.491670 0.733113
vt 0.491670 0.723022
vt 0.491670 0.724951
vt 0.491670 0.730976
vt 0.491670 0.733360
vt 0.491670 0.723633
vt 0.491670 0.732650
vt 0.491670 0.724136
vt 0.491670 0.723651
vt 0.491670 0.707245
vt 0.491670 0.706987
vt 0.491670 0.707186
vt 0.491670 0.707111
vt 0.491670 0.707162
vt 0.491670 0.707172
vt 0.491670 0.707302
vt 0.491670 0.707116
vt 0.491670 0.707132
vt 0.491670 0.707017
vt 0.491670 0.690888
vt 0.491670 0.690208
vt 0.491670 0.691668
vt 0.491670 0.689098
vt 0.491670 0.690554
vt 0.491670 0.676965
vt 0.491670 0.680473
vt 0.491670 0.679506
vt 0.491670 0.678287
vt 0.491670 0.675466
vt 0.491670 0.753462
vt 0.491670 0.742615
vt 0.491670 0.743910
vt 0.491670 0.742444
vt 0.491670 0.741868
vt 0.491670 0.743155
vt 0.491670 0.724863
vt 0.491670 0.724880
vt 0.491670 0.726208
vt 0.491670 0.724531
vt 0.491670 0.724317
vt 0.491670 0.712125
vt 0.491670 0.750166
vt 0.491670 0.750975
vt 0.491670 0.743600
vt 0.491670 0.745585
vt 0.491670 0.752180
vt 0.491670 0.750468
vt 0.491670 0.743565
vt 0.491670 0.752157
vt 0.491670 0.744806
vt 0.491670 0.745719
vt 0.491670 0.733823
vt 0.491670 0.733897
vt 0.491670 0.733797
vt 0.491670 0.733854
vt 0.491670 0.733833
vt 0.491670 0.733791
vt 0.491670 0.733917
vt 0.491670 0.733816
vt 0.491670 0.733869
vt 0.491670 0.733752
vt 0.491670 0.723054
vt 0.491670 0.723522
vt 0.491670 0.722548
vt 0.491670 0.724166
vt 0.491670 0.722837
vt 0.491670 0.716949
vt 0.491670 0.714726
vt 0.491670 0.716605
vt 0.491670 0.718591
vt 0.491670 0.716060
s 0
usemtl TreeMaterial.002
f 2/2/1 14/14/1 13/13/1
f 14/14/2 6/6/2 17/17/2
f 17/17/3 8/8/3 20/20/3
f 2/2/4 8/8/4 6/6/4
f 20/20/5 10/10/5 23/23/5
f 10/10/6 13/13/6 23/23/6
f 3/3/7 7/7/7 9/9/7
f 9/9/8 11/11/8 1/1/8
f 24/24/9 11/11/9 25/25/9
f 24/24/10 13/13/10 12/12/10
f 7/7/11 25/25/11 9/9/11
f 21/21/12 25/25/12 22/22/12
f 21/21/13 23/23/13 24/24/13
f 19/19/14 7/7/14 5/5/14
f 19/19/15 21/21/15 22/22/15
f 17/17/16 21/21/16 18/18/16
f 16/16/17 5/5/17 3/3/17
f 16/16/18 18/18/18 19/19/18
f 14/14/19 18/18/19 15/15/19
f 11/11/20 3/3/20 1/1/20
f 11/11/21 15/15/21 16/16/21
f 12/12/22 14/14/22 15/15/22
f 2/2/23 4/4/23 14/14/23
f 14/14/24 4/4/24 6/6/24
f 17/17/25 6/6/25 8/8/25
f 6/6/4 4/4/4 2/2/4
f 2/2/4 10/10/4 8/8/4
f 20/20/26 8/8/26 10/10/26
f 10/10/27 2/2/27 13/13/27
f 9/9/7 1/1/7 3/3/7
f 3/3/28 5/5/28 7/7/28
f 9/9/29 25/25/29 11/11/29
f 24/24/30 12/12/30 11/11/30
f 24/24/31 23/23/31 13/13/31
f 7/7/32 22/22/32 25/25/32
f 21/21/33 24/24/33 25/25/33
f 21/21/34 20/20/34 23/23/34
f 19/19/35 22/22/35 7/7/35
f 19/19/36 18/18/36 21/21/36
f 17/17/37 20/20/37 21/21/37
f 16/16/38 19/19/38 5/5/38
f 16/16/39 15/15/39 18/18/39
f 14/14/40 17/17/40 18/18/40
f 11/11/41 16/16/41 3/3/41
f 11/11/42 12/12/42 15/15/42
f 12/12/43 13/13/43 14/14/43
f 26/26/44 39/39/44 38/38/44
f 27/27/45 39/39/45 41/41/45
f 26/26/46 38/38/46 43/43/46
f 26/26/47 43/43/47 45/45/47
f 26/26/48 45/45/48 42/42/48
f 27/27/49 41/41/49 48/48/49
f 28/28/50 40/40/50 50/50/50
f 29/29/51 44/44/51 52/52/51
f 30/30/52 46/46/52 54/54/52
f 31/31/53 47/47/53 56/56/53
f 27/27/54 48/48/54 51/51/54
f 28/28/55 50/50/55 53/53/55
f 29/29/56 52/52/56 55/55/56
f 30/30/57 54/54/57 57/57/57
f 31/31/58 56/56/58 49/49/58
f 32/32/59 58/58/59 63/63/59
f 33/33/60 59/59/60 65/65/60
f 34/34/61 60/60/61 66/66/61
f 35/35/62 61/61/62 67/67/62
f 36/36/63 62/62/63 64/64/63
f 64/64/64 67/67/64 37/37/64
f 64/64/65 62/62/65 67/67/65
f 62/62/66 35/35/66 67/67/66
f 67/67/67 66/66/67 37/37/67
f 67/67/68 61/61/68 66/66/68
f 61/61/69 34/34/69 66/66/69
f 66/66/70 65/65/70 37/37/70
f 66/66/71 60/60/71 65/65/71
f 60/60/72 33/33/72 65/65/72
f 65/65/73 63/63/73 37/37/73
f 65/65/74 59/59/74 63/63/74
f 59/59/75 32/32/75 63/63/75
f 63/63/76 64/64/76 37/37/76
f 63/63/77 58/58/77 64/64/77
f 58/58/78 36/36/78 64/64/78
f 49/49/79 62/62/79 36/36/79
f 49/49/80 56/56/80 62/62/80
f 56/56/81 35/35/81 62/62/81
f 57/57/82 61/61/82 35/35/82
f 57/57/83 54/54/83 61/61/83
f 54/54/84 34/34/84 61/61/84
f 55/55/85 60/60/85 34/34/85
f 55/55/86 52/52/86 60/60/86
f 52/52/87 33/33/87 60/60/87
f 53/53/88 59/59/88 33/33/88
f 53/53/89 50/50/89 59/59/89
f 50/50/90 32/32/90 59/59/90
f 51/51/91 58/58/91 32/32/91
f 51/51/92 48/48/92 58/58/92
f 48/48/93 36/36/93 58/58/93
f 56/56/94 57/57/94 35/35/94
f 56/56/95 47/47/95 57/57/95
f 47/47/96 30/30/96 57/57/96
f 54/54/97 55/55/97 34/34/97
f 54/54/98 46/46/98 55/55/98
f 46/46/99 29/29/99 55/55/99
f 52/52/100 53/53/100 33/33/100
f 52/52/101 44/44/101 53/53/101
f 44/44/102 28/28/102 53/53/102
f 50/50/103 51/51/103 32/32/103
f 50/50/104 40/40/104 51/51/104
f 40/40/105 27/27/105 51/51/105
f 48/48/106 49/49/106 36/36/106
f 48/48/107 41/41/107 49/49/107
f 41/41/108 31/31/108 49/49/108
f 42/42/109 47/47/109 31/31/109
f 42/42/110 45/45/110 47/47/110
f 45/45/111 30/30/111 47/47/111
f 45/45/112 46/46/112 30/30/112
f 45/45/113 43/43/113 46/46/113
f 43/43/114 29/29/114 46/46/114
f 43/43/115 44/44/115 29/29/115
f 43/43/116 38/38/116 44/44/116
f 38/38/117 28/28/117 44/44/117
f 41/41/118 42/42/118 31/31/118
f 41/41/119 39/39/119 42/42/119
f 39/39/120 26/26/120 42/42/120
f 38/38/121 40/40/121 28/28/121
f 38/38/122 39/39/122 40/40/122
f 39/39/123 27/27/123 40/40/123
f 68/68/124 81/81/124 80/80/124
f 69/69/125 81/81/125 83/83/125
f 68/68/126 80/80/126 85/85/126
f 68/68/127 85/85/127 87/87/127
f 68/68/128 87/87/128 84/84/128
f 69/69/129 83/83/129 90/90/129
f 70/70/130 82/82/130 92/92/130
f 71/71/131 86/86/131 94/94/131
f 72/72/132 88/88/132 96/96/132
f 73/73/133 89/89/133 98/98/133
f 69/69/134 90/90/134 93/93/134
f 70/70/135 92/92/135 95/95/135
f 71/71/136 94/94/136 97/97/136
f 72/72/137 96/96/137 99/99/137
f 73/73/138 98/98/138 91/91/138
f 74/74/139 100/100/139 105/105/139
f 75/75/140 101/101/140 107/107/140
f 76/76/141 102/102/141 108/108/141
f 77/77/142 103/103/142 109/109/142
f 78/78/143 104/104/143 106/106/143
f 106/106/144 109/109/144 79/79/144
f 106/106/145 104/104/145 109/109/145
f 104/104/146 77/77/146 109/109/146
f 109/109/147 108/108/147 79/79/147
f 109/109/148 103/103/148 108/108/148
f 103/103/149 76/76/149 108/108/149
f 108/108/150 107/107/150 79/79/150
f 108/108/151 102/102/151 107/107/151
f 102/102/152 75/75/152 107/107/152
f 107/107/153 105/105/153 79/79/153
f 107/107/154 101/101/154 105/105/154
f 101/101/155 74/74/155 105/105/155
f 105/105/156 106/106/156 79/79/156
f 105/105/157 100/100/157 106/106/157
f 100/100/158 78/78/158 106/106/158
f 91/91/159 104/104/159 78/78/159
f 91/91/160 98/98/160 104/104/160
f 98/98/161 77/77/161 104/104/161
f 99/99/162 103/103/162 77/77/162
f 99/99/163 96/96/163 103/103/163
f 96/96/164 76/76/164 103/103/164
f 97/97/165 102/102/165 76/76/165
f 97/97/166 94/94/166 102/102/166
f 94/94/167 75/75/167 102/102/167
f 95/95/168 101/101/168 75/75/168
f 95/95/169 92/92/169 101/101/169
f 92/92/170 74/74/170 101/101/170
f 93/93/171 100/100/171 74/74/171
f 93/93/172 90/90/172 100/100/172
f 90/90/173 78/78/173 100/100/173
f 98/98/174 99/99/174 77/77/174
f 98/98/175 89/89/175 99/99/175
f 89/89/176 72/72/176 99/99/176
f 96/96/177 97/97/177 76/76/177
f 96/96/178 88/88/178 97/97/178
f 88/88/179 71/71/179 97/97/179
f 94/94/180 95/95/180 75/75/180
f 94/94/181 86/86/181 95/95/181
f 86/86/182 70/70/182 95/95/182
f 92/92/183 93/93/183 74/74/183
f 92/92/184 82/82/184 93/93/184
f 82/82/185 69/69/185 93/93/185
f 90/90/186 91/91/186 78/78/186
f 90/90/187 83/83/187 91/91/187
f 83/83/188 73/73/188 91/91/188
f 84/84/189 89/89/189 73/73/189
f 84/84/190 87/87/190 89/89/190
f 87/87/191 72/72/191 89/89/191
f 87/87/192 88/88/192 72/72/192
f 87/87/193 85/85/193 88/88/193
f 85/85/194 71/71/194 88/88/194
f 85/85/195 86/86/195 71/71/195
f 85/85/196 80/80/196 86/86/196
f 80/80/197 70/70/197 86/86/197
f 83/83/198 84/84/198 73/73/198
f 83/83/199 81/81/199 84/84/199
f 81/81/200 68/68/200 84/84/200
f 80/80/201 82/82/201 70/70/201
f 80/80/202 81/81/202 82/82/202
f 81/81/203 69/69/203 82/82/203
