# Blender 3.3.1
# www.blender.org
mtllib tree_3.mtl
o LeafTree_1
v 0.000000 1.030140 -0.055156
v 0.000000 0.000000 -0.136750
v -0.052456 1.030140 -0.017044
v -0.130056 0.000000 -0.042258
v -0.032419 1.030140 0.044622
v -0.080379 0.000000 0.110633
v 0.032421 1.030140 0.044622
v 0.080379 0.000000 0.110633
v 0.052457 1.030140 -0.017044
v 0.130057 0.000000 -0.042258
v 0.002792 0.770702 -0.051836
v -0.022632 0.521869 -0.112855
v 0.038439 0.227113 -0.109983
v -0.072218 0.227113 -0.029587
v -0.113889 0.521869 -0.046554
v -0.069065 0.770702 0.000371
v -0.029951 0.227113 0.100498
v -0.079031 0.521869 0.060725
v -0.041618 0.770702 0.084843
v 0.106827 0.227113 0.100498
v 0.033767 0.521869 0.060725
v 0.047201 0.770702 0.084843
v 0.149095 0.227113 -0.029587
v 0.068624 0.521869 -0.046554
v 0.074648 0.770702 0.000371
v 0.003987 0.796080 -0.000580
v 0.469220 1.100094 0.298104
v -0.162730 1.131144 0.434372
v -0.593010 1.105631 -0.011384
v -0.208854 1.080481 -0.554964
v 0.417046 1.135051 -0.265639
v 0.154164 1.510383 0.417036
v -0.533905 1.564064 0.342499
v -0.472677 1.535176 -0.300674
v 0.150558 1.487931 -0.393052
v 0.639467 1.549757 0.012513
v 0.000194 1.838065 -0.000171
v -0.127151 0.837279 0.350284
v 0.288620 0.896683 0.182513
v 0.178554 1.062481 0.490036
v 0.556373 1.069503 0.000616
v 0.310964 0.874423 -0.198668
v -0.339188 0.913278 0.000362
v -0.472770 1.058294 0.302205
v -0.116907 0.872543 -0.314539
v -0.438885 1.072859 -0.283983
v 0.162117 1.083324 -0.439049
v 0.488497 1.319937 0.137836
v 0.632124 1.323352 -0.181396
v -0.006866 1.325176 0.464857
v 0.358288 1.324416 0.434474
v -0.673033 1.319956 0.186759
v -0.407426 1.319650 0.499608
v -0.378026 1.324844 -0.446576
v -0.533770 1.322968 -0.149882
v 0.389243 1.324269 -0.468623
v 0.001182 1.325157 -0.649905
v 0.468609 1.584244 0.297231
v -0.180854 1.586720 0.477496
v -0.477545 1.542652 0.010224
v -0.161381 1.560768 -0.435464
v 0.518250 1.626761 -0.341375
v 0.094840 1.691387 0.258493
v 0.363169 1.764043 0.000180
v -0.264073 1.707089 0.167047
v -0.287107 1.744679 -0.183186
v 0.075334 1.619406 -0.191448
vn -0.5769 0.1912 -0.7941
vn -0.9279 0.2195 0.3015
vn -0.0000 0.0446 0.9990
vn -0.0000 -1.0000 -0.0000
vn 0.9466 -0.0965 0.3076
vn 0.5878 -0.0041 -0.8090
vn -0.0000 1.0000 -0.0000
vn 0.5878 -0.0040 -0.8090
vn 0.5822 0.1370 -0.8014
vn 0.5840 0.1132 -0.8038
vn 0.9461 0.1016 0.3074
vn 0.9479 -0.0810 0.3080
vn 0.9164 0.2673 0.2978
vn -0.0000 0.1532 0.9882
vn -0.0000 -0.0965 0.9953
vn -0.0000 0.1337 0.9910
vn -0.9479 0.0814 0.3080
vn -0.9450 0.1123 0.3071
vn -0.9446 -0.1159 0.3069
vn -0.5877 -0.0167 -0.8089
vn -0.5691 0.2502 -0.7833
vn -0.5829 -0.1286 -0.8023
vn 0.2145 -0.9575 0.1926
vn 0.6428 -0.7198 0.2623
vn -0.3232 -0.9463 -0.0097
vn -0.3216 -0.9410 -0.1053
vn 0.0755 -0.9617 -0.2633
vn 0.9567 0.1120 0.2687
vn -0.1653 -0.0221 0.9860
vn -0.8191 -0.5232 0.2351
vn -0.7386 -0.2304 -0.6335
vn 0.5353 -0.5800 -0.6140
vn 0.8971 0.2061 0.3907
vn 0.0873 -0.2227 0.9710
vn -0.9240 0.0083 -0.3822
vn -0.4716 0.0636 -0.8795
vn 0.6592 -0.5029 -0.5591
vn 0.1184 0.6759 0.7274
vn -0.2109 0.8910 0.4020
vn -0.7405 0.6715 -0.0277
vn 0.2607 0.8503 -0.4572
vn 0.6135 0.7888 -0.0385
vn 0.1391 0.6787 -0.7212
vn -0.1603 0.8885 -0.4299
vn -0.2120 0.7805 -0.5881
vn 0.2206 0.6840 -0.6953
vn 0.2785 0.8369 -0.4713
vn -0.3404 0.6709 -0.6588
vn -0.3769 0.9180 0.1233
vn -0.6607 0.7405 0.1229
vn -0.5351 0.8324 -0.1444
vn -0.0945 0.8507 0.5170
vn -0.0547 0.9259 0.3737
vn 0.2776 0.6829 0.6758
vn 0.1795 0.8825 0.4347
vn 0.2018 0.8680 0.4537
vn 0.5849 0.7690 0.2579
vn 0.9386 0.2064 -0.2766
vn 0.7624 -0.0539 -0.6449
vn -0.0200 0.3949 -0.9185
vn 0.2574 0.7415 -0.6196
vn -0.4270 0.4296 -0.7957
vn -0.3918 0.3988 -0.8291
vn -0.9647 0.2625 -0.0214
vn -0.8237 0.4562 -0.3367
vn -0.8041 0.5687 -0.1730
vn -0.3524 0.3701 0.8595
vn 0.0863 0.0093 0.9962
vn 0.1952 0.0826 0.9773
vn 0.2556 0.3645 0.8955
vn 0.9010 -0.1723 0.3981
vn 0.8159 -0.2523 0.5202
vn 0.2950 0.7202 -0.6280
vn 0.3763 -0.4538 -0.8077
vn 0.2561 -0.5328 -0.8066
vn -0.8827 -0.0755 -0.4638
vn -0.8819 -0.0861 -0.4635
vn -0.8719 -0.0710 -0.4844
vn -0.7621 0.0215 0.6471
vn -0.7307 -0.2857 0.6201
vn -0.2127 -0.5545 0.8045
vn 0.0819 0.1818 0.9799
vn 0.0823 0.1525 0.9849
vn 0.5575 -0.2123 0.8026
vn 0.8544 -0.3537 0.3806
vn 0.9116 0.0222 0.4104
vn 0.6751 -0.5522 -0.4892
vn 0.5679 -0.4140 -0.7114
vn 0.1951 -0.6773 -0.7094
vn 0.2193 -0.6949 -0.6849
vn -0.5026 -0.7397 -0.4475
vn -0.5272 -0.8065 -0.2678
vn -0.5803 -0.7800 -0.2343
vn -0.6035 -0.7895 0.1122
vn -0.5474 -0.8228 0.1530
vn -0.3148 -0.2962 0.9018
vn 0.7501 -0.4336 -0.4993
vn 0.5789 -0.8113 0.0813
vn 0.2904 -0.9541 0.0727
vn -0.2110 -0.2924 0.9327
vn 0.3276 -0.7777 0.5365
vn 0.4504 -0.7086 0.5432
vt 0.336803 0.348078
vt 0.336803 0.494947
vt 0.336803 0.348078
vt 0.336803 0.494947
vt 0.336803 0.348078
vt 0.336803 0.494947
vt 0.336803 0.348078
vt 0.336803 0.494947
vt 0.336803 0.348078
vt 0.336803 0.494947
vt 0.336803 0.384795
vt 0.336803 0.421513
vt 0.336803 0.458230
vt 0.336803 0.458230
vt 0.336803 0.421513
vt 0.336803 0.384795
vt 0.336803 0.458230
vt 0.336803 0.421513
vt 0.336803 0.384795
vt 0.336803 0.458230
vt 0.336803 0.421513
vt 0.336803 0.384795
vt 0.336803 0.458230
vt 0.336803 0.421513
vt 0.336803 0.384795
vt 0.633260 0.510027
vt 0.633260 0.532636
vt 0.633260 0.534946
vt 0.633260 0.533048
vt 0.633260 0.531178
vt 0.633260 0.535236
vt 0.633260 0.563150
vt 0.633260 0.567142
vt 0.633260 0.564993
vt 0.633260 0.561480
vt 0.633260 0.566078
vt 0.633260 0.587519
vt 0.633260 0.513091
vt 0.633260 0.517509
vt 0.633260 0.529839
vt 0.633260 0.530361
vt 0.633260 0.515853
vt 0.633260 0.518743
vt 0.633260 0.529528
vt 0.633260 0.515714
vt 0.633260 0.530611
vt 0.633260 0.531389
vt 0.633260 0.548986
vt 0.633260 0.549240
vt 0.633260 0.549376
vt 0.633260 0.549319
vt 0.633260 0.548987
vt 0.633260 0.548965
vt 0.633260 0.549351
vt 0.633260 0.549211
vt 0.633260 0.549308
vt 0.633260 0.549374
vt 0.633260 0.568642
vt 0.633260 0.568827
vt 0.633260 0.565549
vt 0.633260 0.566897
vt 0.633260 0.571804
vt 0.633260 0.576611
vt 0.633260 0.582014
vt 0.633260 0.577778
vt 0.633260 0.580574
vt 0.633260 0.571257
s 0
usemtl TreeMaterial.001
f 2/2/1 14/14/1 13/13/1
f 14/14/2 6/6/2 17/17/2
f 17/17/3 8/8/3 20/20/3
f 2/2/4 8/8/4 6/6/4
f 20/20/5 10/10/5 23/23/5
f 10/10/6 13/13/6 23/23/6
f 3/3/7 7/7/7 9/9/7
f 9/9/8 11/11/8 1/1/8
f 24/24/9 11/11/9 25/25/9
f 24/24/10 13/13/10 12/12/10
f 7/7/11 25/25/11 9/9/11
f 21/21/12 25/25/12 22/22/12
f 21/21/13 23/23/13 24/24/13
f 19/19/14 7/7/14 5/5/14
f 19/19/15 21/21/15 22/22/15
f 17/17/16 21/21/16 18/18/16
f 16/16/17 5/5/17 3/3/17
f 16/16/18 18/18/18 19/19/18
f 14/14/19 18/18/19 15/15/19
f 11/11/20 3/3/20 1/1/20
f 11/11/21 15/15/21 16/16/21
f 12/12/22 14/14/22 15/15/22
f 2/2/1 4/4/1 14/14/1
f 14/14/2 4/4/2 6/6/2
f 17/17/3 6/6/3 8/8/3
f 6/6/4 4/4/4 2/2/4
f 2/2/4 10/10/4 8/8/4
f 20/20/5 8/8/5 10/10/5
f 10/10/6 2/2/6 13/13/6
f 9/9/7 1/1/7 3/3/7
f 3/3/7 5/5/7 7/7/7
f 9/9/8 25/25/8 11/11/8
f 24/24/9 12/12/9 11/11/9
f 24/24/10 23/23/10 13/13/10
f 7/7/11 22/22/11 25/25/11
f 21/21/12 24/24/12 25/25/12
f 21/21/13 20/20/13 23/23/13
f 19/19/14 22/22/14 7/7/14
f 19/19/15 18/18/15 21/21/15
f 17/17/16 20/20/16 21/21/16
f 16/16/17 19/19/17 5/5/17
f 16/16/18 15/15/18 18/18/18
f 14/14/19 17/17/19 18/18/19
f 11/11/20 16/16/20 3/3/20
f 11/11/21 12/12/21 15/15/21
f 12/12/22 13/13/22 14/14/22
f 26/26/23 39/39/23 38/38/23
f 27/27/24 39/39/24 41/41/24
f 26/26/25 38/38/25 43/43/25
f 26/26/26 43/43/26 45/45/26
f 26/26/27 45/45/27 42/42/27
f 27/27/28 41/41/28 48/48/28
f 28/28/29 40/40/29 50/50/29
f 29/29/30 44/44/30 52/52/30
f 30/30/31 46/46/31 54/54/31
f 31/31/32 47/47/32 56/56/32
f 27/27/33 48/48/33 51/51/33
f 28/28/34 50/50/34 53/53/34
f 29/29/35 52/52/35 55/55/35
f 30/30/36 54/54/36 57/57/36
f 31/31/37 56/56/37 49/49/37
f 32/32/38 58/58/38 63/63/38
f 33/33/39 59/59/39 65/65/39
f 34/34/40 60/60/40 66/66/40
f 35/35/41 61/61/41 67/67/41
f 36/36/42 62/62/42 64/64/42
f 64/64/43 67/67/43 37/37/43
f 64/64/44 62/62/44 67/67/44
f 62/62/45 35/35/45 67/67/45
f 67/67/46 66/66/46 37/37/46
f 67/67/47 61/61/47 66/66/47
f 61/61/48 34/34/48 66/66/48
f 66/66/49 65/65/49 37/37/49
f 66/66/50 60/60/50 65/65/50
f 60/60/51 33/33/51 65/65/51
f 65/65/52 63/63/52 37/37/52
f 65/65/53 59/59/53 63/63/53
f 59/59/54 32/32/54 63/63/54
f 63/63/55 64/64/55 37/37/55
f 63/63/56 58/58/56 64/64/56
f 58/58/57 36/36/57 64/64/57
f 49/49/58 62/62/58 36/36/58
f 49/49/59 56/56/59 62/62/59
f 56/56/60 35/35/60 62/62/60
f 57/57/61 61/61/61 35/35/61
f 57/57/62 54/54/62 61/61/62
f 54/54/63 34/34/63 61/61/63
f 55/55/64 60/60/64 34/34/64
f 55/55/65 52/52/65 60/60/65
f 52/52/66 33/33/66 60/60/66
f 53/53/67 59/59/67 33/33/67
f 53/53/68 50/50/68 59/59/68
f 50/50/69 32/32/69 59/59/69
f 51/51/70 58/58/70 32/32/70
f 51/51/71 48/48/71 58/58/71
f 48/48/72 36/36/72 58/58/72
f 56/56/73 57/57/73 35/35/73
f 56/56/74 47/47/74 57/57/74
f 47/47/75 30/30/75 57/57/75
f 54/54/76 55/55/76 34/34/76
f 54/54/77 46/46/77 55/55/77
f 46/46/78 29/29/78 55/55/78
f 52/52/79 53/53/79 33/33/79
f 52/52/80 44/44/80 53/53/80
f 44/44/81 28/28/81 53/53/81
f 50/50/82 51/51/82 32/32/82
f 50/50/83 40/40/83 51/51/83
f 40/40/84 27/27/84 51/51/84
f 48/48/85 49/49/85 36/36/85
f 48/48/86 41/41/86 49/49/86
f 41/41/87 31/31/87 49/49/87
f 42/42/88 47/47/88 31/31/88
f 42/42/89 45/45/89 47/47/89
f 45/45/90 30/30/90 47/47/90
f 45/45/91 46/46/91 30/30/91
f 45/45/92 43/43/92 46/46/92
f 43/43/93 29/29/93 46/46/93
f 43/43/94 44/44/94 29/29/94
f 43/43/95 38/38/95 44/44/95
f 38/38/96 28/28/96 44/44/96
f 41/41/97 42/42/97 31/31/97
f 41/41/98 39/39/98 42/42/98
f 39/39/99 26/26/99 42/42/99
f 38/38/100 40/40/100 28/28/100
f 38/38/101 39/39/101 40/40/101
f 39/39/102 27/27/102 40/40/102
